<?xml version="1.0" standalone="no"?>
<!DOCTYPE svg PUBLIC "-//W3C//DTD SVG 20010904//EN"
 "http://www.w3.org/TR/2001/REC-SVG-20010904/DTD/svg10.dtd">
<svg version="1.0" xmlns="http://www.w3.org/2000/svg"
 width="260.000000pt" height="260.000000pt" viewBox="0 0 260.000000 260.000000"
 preserveAspectRatio="xMidYMid meet">
<metadata>
Created by potrace 1.11, written by Peter Selinger 2001-2013
</metadata>
<g transform="translate(0.000000,260.000000) scale(0.100000,-0.100000)"
fill="#000000" stroke="none">
<path d="M1151 1717 c-6 -6 -11 -18 -11 -26 -1 -13 -2 -13 -11 2 -5 9 -17 17
-25 17 -8 0 -18 -8 -21 -17 -9 -24 -41 -50 -81 -68 -18 -8 -32 -18 -31 -22 1
-4 1 -16 0 -25 -2 -27 -21 -21 -21 5 0 55 -70 75 -110 32 -23 -25 -23 -25 -4
-40 15 -12 16 -14 2 -9 -15 5 -16 2 -8 -27 14 -49 35 -67 60 -51 11 6 30 12
42 12 23 0 22 -1 -4 -24 -16 -13 -28 -28 -28 -35 0 -6 -5 -11 -12 -11 -6 0 -8
-3 -5 -7 4 -3 -2 -12 -13 -20 -11 -8 -20 -20 -20 -28 0 -36 -22 -19 -50 39
-24 48 -29 69 -22 82 9 16 -5 44 -22 44 -16 0 -35 -33 -27 -48 5 -9 21 -51 36
-92 28 -81 54 -124 62 -102 3 6 13 12 23 12 10 0 28 12 40 28 12 15 25 27 29
27 4 0 19 13 33 30 22 25 28 28 42 16 9 -7 16 -10 16 -7 0 4 13 -2 29 -13 16
-12 33 -21 38 -21 5 0 20 -11 33 -25 16 -17 26 -21 31 -14 3 6 9 7 12 2 3 -5
-20 -36 -52 -69 -53 -54 -97 -115 -73 -100 5 3 24 3 41 0 l31 -6 -37 -19 c-45
-23 -57 -24 -50 -5 4 10 1 13 -9 9 -18 -7 -18 -11 0 -29 8 -7 16 -19 18 -25 5
-15 270 -32 279 -18 4 7 13 7 27 -2 16 -10 19 -20 15 -43 -3 -17 -10 -39 -15
-48 -7 -14 -5 -18 11 -18 24 0 57 41 66 80 4 17 10 32 15 35 5 3 32 -9 59 -26
53 -32 64 -43 34 -32 -15 5 -14 3 2 -10 11 -9 21 -11 23 -6 2 5 17 2 33 -6 31
-17 40 -31 12 -20 -10 3 0 -10 22 -29 22 -19 45 -35 50 -35 6 0 -6 14 -25 31
-19 17 -27 28 -17 25 22 -8 14 7 -40 78 -28 36 -50 53 -78 61 -22 7 -33 13
-25 14 12 0 11 3 -2 11 -10 5 -18 15 -18 21 0 6 -24 37 -54 68 l-54 57 -36
-20 -36 -21 28 -30 c15 -17 18 -24 7 -15 -31 24 -45 31 -45 21 0 -18 107 -81
129 -75 11 3 21 1 21 -5 0 -17 -31 -23 -70 -12 -21 6 -45 7 -54 4 -9 -4 -16
-1 -16 6 0 8 -10 11 -29 7 -20 -4 -33 -1 -42 9 -8 10 -21 13 -36 9 -13 -3 -23
-1 -23 4 0 5 12 12 28 15 32 8 105 74 99 90 -3 6 -8 20 -12 31 -7 20 -6 20 9
1 9 -11 16 -26 16 -33 0 -9 12 -5 34 12 l35 26 -21 35 c-11 19 -24 32 -28 29
-4 -3 -13 1 -19 9 -6 7 -29 21 -51 31 -22 10 -40 21 -40 25 0 13 -58 32 -72
24 -9 -5 -10 -4 -3 4 6 5 18 12 27 14 12 2 15 7 9 16 -7 12 -14 11 -41 -3 -18
-9 -30 -12 -26 -7 3 5 19 15 35 22 27 11 29 14 18 37 -10 22 -16 24 -54 21
-42 -3 -43 -2 -42 27 0 16 3 24 6 17 3 -9 10 -4 19 13 17 33 17 38 2 29 -7 -4
-8 -3 -4 5 4 6 12 9 17 6 5 -4 9 -2 9 2 0 5 6 18 14 29 14 18 15 18 13 -3 -1
-13 -6 -23 -11 -23 -5 0 -7 -3 -3 -6 3 -4 0 -13 -8 -21 -17 -16 -20 -37 -5
-28 6 3 10 2 10 -2 0 -5 -12 -14 -27 -20 l-28 -10 33 0 c22 0 36 6 40 16 3 9
15 28 26 44 19 26 23 27 111 27 89 0 92 -1 124 -32 l32 -32 -7 30 c-5 24 -4
27 7 17 16 -16 33 -17 23 -1 -5 8 -2 9 10 5 14 -5 15 -3 6 13 -15 28 -23 31
-86 31 -39 1 -53 4 -43 11 10 7 8 8 -7 3 -11 -3 -51 1 -87 8 -46 10 -69 11
-76 4z m-174 -201 c-3 -8 4 -27 15 -42 l21 -27 -21 12 c-11 6 -24 16 -27 21
-7 11 3 50 12 50 3 0 3 -6 0 -14z m277 -144 c3 -5 -8 -6 -25 -4 -16 2 -29 6
-29 8 0 8 49 4 54 -4z m189 -268 c-7 -19 -10 -18 -16 5 -3 13 -1 18 9 14 7 -2
10 -11 7 -19z"/>
<path d="M1528 1623 c7 -3 16 -2 19 1 4 3 -2 6 -13 5 -11 0 -14 -3 -6 -6z"/>
<path d="M1126 1585 c-3 -8 -1 -15 4 -15 6 0 10 7 10 15 0 8 -2 15 -4 15 -2 0
-6 -7 -10 -15z"/>
<path d="M737 1561 c-4 -17 -3 -21 5 -13 5 5 8 16 6 23 -3 8 -7 3 -11 -10z"/>
<path d="M1178 1513 c7 -3 16 -2 19 1 4 3 -2 6 -13 5 -11 0 -14 -3 -6 -6z"/>
<path d="M1280 1459 c0 -5 5 -7 10 -4 6 3 10 8 10 11 0 2 -4 4 -10 4 -5 0 -10
-5 -10 -11z"/>
<path d="M1190 1450 c20 -13 33 -13 25 0 -3 6 -14 10 -23 10 -15 0 -15 -2 -2
-10z"/>
<path d="M1243 1418 c21 -7 32 -7 40 1 8 8 0 11 -28 10 -40 -1 -40 -1 -12 -11z"/>
<path d="M1465 1380 c-4 -6 14 -10 47 -9 42 1 48 3 28 9 -36 12 -68 12 -75 0z"/>
<path d="M1880 1315 c-8 -9 -8 -15 -2 -15 12 0 26 19 19 26 -2 2 -10 -2 -17
-11z"/>
<path d="M1510 1311 c0 -5 9 -11 21 -14 16 -4 18 -3 8 9 -13 16 -29 19 -29 5z"/>
<path d="M1410 1245 c0 -2 20 -18 45 -35 41 -28 44 -29 36 -9 -6 19 -81 58
-81 44z"/>
<path d="M1740 1200 c20 -13 40 -13 40 0 0 6 -12 10 -27 10 -22 0 -25 -2 -13
-10z"/>
<path d="M1470 1168 c0 -9 7 -22 17 -29 15 -13 15 -12 3 11 -17 34 -20 36 -20
18z"/>
<path d="M1760 1082 c0 -6 9 -12 20 -15 11 -3 20 -3 20 -1 0 2 -9 8 -20 14
-11 6 -20 7 -20 2z"/>
<path d="M1705 1060 c3 -5 8 -10 11 -10 2 0 4 5 4 10 0 6 -5 10 -11 10 -5 0
-7 -4 -4 -10z"/>
<path d="M1590 1055 c0 -2 10 -10 23 -16 20 -11 21 -11 8 4 -13 16 -31 23 -31
12z"/>
<path d="M1665 1010 c3 -5 13 -10 21 -10 8 0 12 5 9 10 -3 6 -13 10 -21 10 -8
0 -12 -4 -9 -10z"/>
<path d="M1642 969 c26 -33 34 -38 37 -23 2 11 -8 27 -25 41 -44 35 -49 28
-12 -18z"/>
<path d="M1716 928 c15 -17 16 -20 3 -16 -14 6 -15 2 0 -38 18 -51 41 -59 41
-14 0 17 -5 30 -11 30 -6 0 -8 8 -4 19 4 14 0 23 -14 30 -31 17 -36 13 -15
-11z"/>
<path d="M1771 904 c0 -11 3 -14 6 -6 3 7 2 16 -1 19 -3 4 -6 -2 -5 -13z"/>
<path d="M1692 875 c6 -14 13 -23 16 -21 7 7 -9 46 -18 46 -5 0 -4 -11 2 -25z"/>
<path d="M1855 820 c3 -5 8 -10 11 -10 2 0 4 5 4 10 0 6 -5 10 -11 10 -5 0 -7
-4 -4 -10z"/>
<path d="M1737 790 c7 -28 22 -35 30 -15 3 10 0 21 -8 26 -22 14 -28 11 -22
-11z"/>
</g>
</svg>
