<?xml version="1.0" standalone="no"?>
<!DOCTYPE svg PUBLIC "-//W3C//DTD SVG 20010904//EN"
 "http://www.w3.org/TR/2001/REC-SVG-20010904/DTD/svg10.dtd">
<svg version="1.0" xmlns="http://www.w3.org/2000/svg"
 width="512.000000pt" height="512.000000pt" viewBox="0 0 512.000000 512.000000"
 preserveAspectRatio="xMidYMid meet">
<metadata>
Created by potrace 1.11, written by Peter Selinger 2001-2013
</metadata>
<g transform="translate(0.000000,512.000000) scale(0.100000,-0.100000)"
fill="#000000" stroke="none">
<path d="M1358 5045 c-135 -37 -247 -154 -274 -284 -8 -41 -10 -645 -10 -2226
l2 -2170 21 -53 c40 -100 102 -166 203 -215 l65 -32 1200 0 1200 0 56 28 c103
50 176 133 211 240 14 41 19 4345 5 4421 -21 118 -115 233 -225 278 l-57 23
-1175 2 c-941 1 -1184 -1 -1222 -12z m1564 -197 c46 -31 38 -117 -12 -133 -17
-5 -275 -8 -631 -5 -67 0 -99 23 -99 73 0 41 17 65 52 75 15 4 171 7 346 7
281 0 321 -2 344 -17z m969 -337 c3 -1 6 -828 6 -1838 l0 -1838 -681 0 c-375
0 -686 4 -693 8 -6 4 -14 4 -16 0 -4 -6 -1240 -10 -1268 -4 -11 2 -6 296 5
303 8 6 8 8 0 8 -15 0 -15 2790 0 2790 8 0 8 2 0 8 -15 10 -15 384 0 394 8 6
8 8 0 8 -7 0 -11 28 -11 80 0 64 3 80 15 82 13 3 2627 1 2643 -1z m-1250
-3842 c154 -52 206 -250 98 -373 -140 -158 -397 -68 -404 142 -2 54 2 76 21
114 52 103 175 153 285 117z"/>
<path d="M2180 4269 c-25 -23 -84 -79 -131 -125 -47 -46 -90 -80 -94 -76 -5 4
-5 2 -1 -5 3 -6 1 -15 -7 -20 -7 -4 -47 -47 -88 -94 l-76 -85 -49 43 c-88 78
-230 183 -247 183 -9 0 -17 -7 -17 -16 0 -19 130 -188 225 -291 85 -93 98 -94
173 -15 126 133 380 471 384 513 5 38 -23 33 -72 -12z"/>
<path d="M2364 4077 c-60 -33 -58 -103 3 -135 16 -9 190 -12 642 -12 l620 0
25 23 c38 33 41 73 7 107 l-27 28 -626 0 c-416 -1 -632 -4 -644 -11z"/>
<path d="M2133 3385 c-92 -86 -250 -246 -315 -320 l-36 -39 -57 49 c-230 199
-319 234 -203 79 128 -171 235 -284 269 -284 28 0 84 58 219 226 134 168 239
316 242 345 5 45 -28 30 -119 -56z"/>
<path d="M2365 3239 c-33 -16 -46 -46 -39 -85 12 -66 -9 -64 688 -61 611 2
626 2 645 22 34 34 34 73 2 106 l-29 28 -623 0 c-392 0 -632 -4 -644 -10z"/>
<path d="M1602 2614 c-34 -24 -27 -50 21 -81 111 -70 167 -109 167 -114 0 -4
-15 -18 -34 -32 -64 -49 -147 -142 -172 -193 -35 -71 -21 -144 27 -144 19 0
46 34 108 133 18 30 58 81 87 113 l54 59 86 -90 c47 -49 108 -123 135 -163 27
-41 49 -68 49 -60 0 41 -105 240 -174 331 l-36 47 58 47 c31 27 85 66 120 88
151 97 -10 48 -179 -54 l-33 -20 -60 56 c-93 86 -172 113 -224 77z"/>
<path d="M2370 2403 c-64 -26 -62 -122 4 -142 18 -5 279 -9 648 -8 l617 2 22
22 c32 31 30 80 -5 110 l-27 23 -622 -1 c-342 0 -629 -3 -637 -6z"/>
<path d="M2137 1713 c-143 -138 -211 -206 -285 -287 l-72 -80 -37 35 c-21 19
-40 37 -43 40 -17 18 -167 132 -191 145 -47 24 -48 -6 -3 -68 62 -88 222 -274
249 -292 36 -24 59 -14 121 53 120 129 384 481 384 514 0 37 -43 16 -123 -60z"/>
<path d="M2350 1550 c-42 -42 -31 -110 23 -129 12 -4 299 -7 637 -7 480 1 620
4 638 14 31 17 44 55 32 88 -22 56 14 53 -674 54 -621 0 -636 0 -656 -20z"/>
</g>
</svg>
