<?xml version="1.0" standalone="no"?>
<!DOCTYPE svg PUBLIC "-//W3C//DTD SVG 20010904//EN"
 "http://www.w3.org/TR/2001/REC-SVG-20010904/DTD/svg10.dtd">
<svg version="1.0" xmlns="http://www.w3.org/2000/svg"
 width="2093.000000pt" height="2093.000000pt" viewBox="0 0 2093.000000 2093.000000"
 preserveAspectRatio="xMidYMid meet">
<metadata>
Created by potrace 1.11, written by Peter Selinger 2001-2013
</metadata>
<g transform="translate(0.000000,2093.000000) scale(0.100000,-0.100000)"
fill="#000000" stroke="none">
<path d="M5025 20923 c-305 -18 -514 -45 -780 -98 -821 -165 -1599 -543 -2275
-1105 -161 -134 -526 -499 -660 -659 -791 -953 -1233 -2085 -1300 -3336 -8
-140 -10 -1753 -8 -5395 4 -5627 0 -5236 53 -5619 266 -1928 1492 -3562 3231
-4307 550 -235 1109 -362 1739 -394 307 -16 10929 -8 11075 8 526 59 911 146
1324 299 705 261 1327 664 1877 1212 981 981 1545 2269 1619 3696 14 263 13
10222 0 10485 -75 1445 -659 2757 -1666 3740 -776 757 -1732 1243 -2785 1415
-397 64 101 59 -5929 60 -3006 1 -5487 0 -5515 -2z m11050 -102 c688 -71 1256
-232 1820 -516 695 -349 1293 -843 1793 -1484 100 -128 326 -465 410 -612 141
-245 286 -557 385 -824 166 -449 260 -850 324 -1390 17 -142 18 -421 18 -5520
0 -4347 -2 -5393 -13 -5490 -82 -752 -257 -1365 -567 -1985 -823 -1644 -2384
-2729 -4153 -2885 -144 -13 -905 -15 -5623 -15 -3631 0 -5499 3 -5585 10
-1456 116 -2779 854 -3684 2055 -344 457 -613 965 -799 1509 -154 449 -240
853 -288 1356 -17 175 -18 468 -18 5420 0 5562 -2 5323 46 5699 202 1580 1064
2986 2359 3846 754 502 1623 790 2515 835 83 4 2578 6 5545 6 4224 -2 5421 -5
5515 -15z"/>
<path d="M4515 17570 c-511 -58 -943 -399 -1113 -880 -54 -155 -67 -236 -67
-440 0 -204 13 -285 67 -440 203 -575 771 -940 1373 -881 589 57 1055 472
1181 1051 27 121 27 419 0 540 -101 464 -436 840 -882 989 -163 55 -391 79
-559 61z"/>
<path d="M16095 17570 c-573 -64 -1035 -483 -1157 -1053 -29 -136 -31 -390 -4
-517 112 -538 508 -939 1039 -1051 134 -29 379 -31 509 -6 419 83 770 353 953
732 88 184 127 361 127 575 0 368 -129 679 -391 940 -195 194 -421 313 -686
363 -105 20 -290 28 -390 17z"/>
<path d="M10375 11764 c-297 -52 -599 -229 -785 -461 -113 -140 -180 -262
-235 -426 -86 -257 -88 -573 -4 -828 149 -458 528 -794 1009 -896 129 -27 391
-24 530 6 342 73 637 275 830 568 160 242 231 503 217 797 -21 428 -236 805
-592 1041 -151 100 -324 169 -499 200 -111 19 -360 19 -471 -1z"/>
<path d="M4424 6016 c-316 -60 -584 -215 -783 -452 -166 -199 -265 -423 -302
-683 -16 -113 -6 -350 20 -461 116 -507 498 -889 1005 -1008 97 -22 134 -26
286 -26 190 -1 302 17 454 71 426 151 751 525 852 978 21 96 29 339 15 447
-72 542 -462 978 -996 1115 -86 22 -126 26 -290 29 -131 2 -212 -1 -261 -10z"/>
<path d="M15999 6014 c-395 -71 -751 -334 -937 -693 -107 -206 -145 -367 -146
-611 0 -178 13 -266 61 -415 29 -90 106 -251 154 -323 265 -390 705 -611 1169
-589 332 16 622 142 861 374 266 258 401 580 401 953 0 360 -130 677 -382 931
-195 196 -423 318 -692 370 -119 23 -371 25 -489 3z"/>
</g>
</svg>
