<?xml version="1.0" standalone="no"?>
<!DOCTYPE svg PUBLIC "-//W3C//DTD SVG 20010904//EN"
 "http://www.w3.org/TR/2001/REC-SVG-20010904/DTD/svg10.dtd">
<svg version="1.0" xmlns="http://www.w3.org/2000/svg"
 width="400.000000pt" height="400.000000pt" viewBox="0 0 400.000000 400.000000"
 preserveAspectRatio="xMidYMid meet">
<metadata>
Created by potrace 1.11, written by Peter Selinger 2001-2013
</metadata>
<g transform="translate(0.000000,400.000000) scale(0.100000,-0.100000)"
fill="#000000" stroke="none">
<path d="M2380 3854 c-49 -14 -77 -39 -107 -94 -124 -227 -125 -228 -147 -224
-28 6 -253 42 -361 59 -38 6 -100 16 -125 21 -14 3 -41 7 -60 9 -48 6 -97 14
-151 23 -64 12 -109 8 -153 -13 -59 -28 -80 -73 -85 -180 -2 -46 -14 -56 -67
-61 -27 -2 -78 -6 -114 -9 -63 -5 -124 -11 -220 -20 -25 -3 -72 -7 -105 -10
-98 -10 -130 -22 -161 -62 -38 -50 -52 -97 -44 -144 13 -71 9 -81 -40 -96 -25
-8 -52 -17 -60 -20 -8 -3 -22 -7 -30 -9 -8 -2 -64 -19 -124 -39 -60 -19 -115
-35 -121 -35 -20 0 -83 -75 -93 -110 -12 -46 -9 -61 40 -209 23 -69 41 -127
40 -128 -1 -2 6 -19 14 -40 9 -20 17 -44 19 -52 2 -9 58 -180 125 -381 66
-201 154 -468 196 -595 41 -126 78 -237 81 -245 3 -8 7 -19 9 -25 1 -5 26 -82
55 -170 29 -88 52 -163 51 -167 -1 -5 3 -8 9 -8 5 0 8 -4 4 -10 -3 -5 -1 -17
4 -27 16 -31 70 -205 82 -263 6 -30 17 -65 25 -77 13 -21 72 -186 79 -223 16
-82 127 -116 240 -73 31 12 447 144 465 148 7 1 369 119 485 157 50 16 95 31
100 32 6 1 16 5 23 9 6 5 12 6 12 3 0 -3 22 3 50 14 27 11 50 17 50 13 0 -4 5
-2 12 5 19 19 33 15 100 -26 114 -68 141 -75 217 -57 43 10 108 75 141 141 14
27 53 100 88 163 35 63 81 148 103 189 22 42 43 80 48 86 4 6 28 49 53 96 25
47 82 151 126 232 45 81 82 150 82 153 0 4 8 19 18 33 11 15 38 62 60 104 23
43 61 113 84 155 22 43 45 83 49 88 4 6 25 44 47 85 40 78 89 166 129 235 12
22 26 47 30 55 4 8 37 71 75 139 37 68 68 127 68 131 0 5 3 10 8 12 4 2 23 35
43 73 62 119 74 140 79 145 11 10 61 117 64 137 11 55 -59 163 -105 163 -9 0
-19 4 -21 8 -3 7 -49 35 -163 98 -91 50 -381 215 -395 224 -8 6 -26 16 -40 22
-14 7 -69 39 -123 70 -53 32 -99 58 -101 58 -3 0 -37 19 -78 43 -40 24 -102
60 -138 79 -36 20 -125 70 -199 112 -74 42 -148 79 -164 82 -17 2 -33 6 -36 8
-3 2 -26 -3 -51 -10z"/>
</g>
</svg>
