<?xml version="1.0" encoding="utf-8"?>
<!-- Svg Vector Icons : http://www.onlinewebfonts.com/icon -->
<!DOCTYPE svg PUBLIC "-//W3C//DTD SVG 1.1//EN" "http://www.w3.org/Graphics/SVG/1.1/DTD/svg11.dtd">
<svg version="1.1" xmlns="http://www.w3.org/2000/svg" xmlns:xlink="http://www.w3.org/1999/xlink" x="0px" y="0px" viewBox="0 0 1000 1000" enable-background="new 0 0 1000 1000" xml:space="preserve">
<metadata> Svg Vector Icons : http://www.onlinewebfonts.com/icon </metadata>
<g><g transform="translate(0.000000,512.000000) scale(0.100000,-0.100000)"><path d="M2663.9,4992.2c-36.4-19.2-84.3-59.4-105.4-88.2l-40.3-53.7l-5.7-4709.8c-3.8-4454.8-1.9-4713.6,28.8-4774.9C2593-4734,2667.7-4780,2777-4780c109.3,0,184,46,233.9,145.7c32.6,61.3,34.5,218.5,34.5,2461.3V223l2076,899c1140.5,494.6,2123.9,923.9,2183.3,954.6c124.6,61.3,166.8,113.1,182.1,222.4c11.5,82.4-21.1,161-93.9,226.2c-86.3,78.6-4520,2484.3-4592.8,2493.9C2754,5022.9,2706,5015.2,2663.9,4992.2z M3461.3,4077.9c220.4-118.8,1012.1-552.1,1759.7-960.3c749.5-408.3,1366.7-747.6,1374.4-755.3c9.6-7.7-3299-1460.7-3532.8-1550.7c-9.6-3.8-17.3,766.7-17.3,1738.6c0,960.4,3.8,1746.3,9.6,1746.3S3242.8,4198.6,3461.3,4077.9z"/></g></g>
</svg>