<?xml version="1.0" standalone="no"?>
<!DOCTYPE svg PUBLIC "-//W3C//DTD SVG 20010904//EN"
 "http://www.w3.org/TR/2001/REC-SVG-20010904/DTD/svg10.dtd">
<svg version="1.0" xmlns="http://www.w3.org/2000/svg"
 width="1391.000000pt" height="1391.000000pt" viewBox="0 0 1391.000000 1391.000000"
 preserveAspectRatio="xMidYMid meet">
<metadata>
Created by potrace 1.11, written by Peter Selinger 2001-2013
</metadata>
<g transform="translate(0.000000,1391.000000) scale(0.100000,-0.100000)"
fill="#000000" stroke="none">
<path d="M1782 13857 c-18 -18 -32 -37 -32 -41 0 -5 12 -20 28 -34 179 -162
340 -336 434 -472 84 -121 183 -327 202 -423 3 -12 10 -47 16 -77 6 -30 14
-89 17 -130 l5 -75 -39 -18 c-139 -66 -342 -209 -458 -323 -77 -76 -154 -161
-171 -190 -15 -25 -22 -17 -30 32 -12 75 -76 250 -129 350 -106 203 -275 408
-520 632 l-69 62 -37 -41 -37 -42 61 -56 c340 -309 519 -564 602 -856 44 -155
49 -247 16 -294 -80 -112 -193 -435 -217 -616 -3 -27 -9 -69 -14 -93 -8 -44
-6 -381 3 -417 3 -11 8 -45 12 -75 24 -189 127 -463 246 -657 140 -228 377
-462 612 -603 27 -16 36 -27 32 -39 -67 -174 -170 -516 -210 -696 -21 -96 -59
-291 -69 -360 -17 -109 -36 -260 -41 -320 -3 -38 -8 -92 -11 -120 -14 -151
-20 -580 -10 -740 11 -161 22 -303 31 -370 12 -97 35 -262 39 -281 2 -12 7
-37 10 -55 3 -19 8 -45 11 -59 3 -14 8 -41 11 -60 3 -19 7 -44 9 -55 2 -11 19
-87 38 -170 19 -82 34 -151 34 -152 -3 -2 -63 -11 -122 -18 -27 -3 -63 -8 -80
-10 -16 -2 -57 -6 -90 -10 -33 -4 -71 -8 -85 -11 -14 -2 -83 -10 -155 -19 -71
-8 -146 -18 -165 -21 -19 -3 -48 -7 -63 -9 -82 -12 -116 -17 -152 -25 -22 -5
-56 -12 -75 -15 -70 -12 -227 -55 -309 -85 -174 -63 -348 -229 -428 -408 -69
-154 -74 -191 -78 -562 -3 -240 -7 -313 -25 -435 -5 -33 -12 -78 -15 -100 -3
-22 -8 -52 -11 -66 -5 -28 -3 -29 91 -46 19 -3 154 -31 185 -38 82 -18 191
-37 194 -34 2 2 6 22 10 44 3 22 12 81 20 130 14 87 18 118 32 269 3 37 7 179
8 315 2 259 7 291 52 362 36 57 92 97 177 125 68 23 107 34 212 59 11 3 34 7
50 9 17 3 73 11 125 20 52 8 122 17 155 21 33 3 71 7 85 10 14 2 48 7 75 10
28 3 84 10 125 15 41 5 102 12 135 15 33 4 71 8 83 10 13 2 60 7 105 10 l82 6
43 -118 c134 -366 324 -760 536 -1112 31 -52 53 -97 48 -100 -5 -3 -95 -68
-200 -143 -270 -194 -492 -327 -712 -427 -339 -154 -431 -231 -517 -433 -31
-76 -34 -90 -33 -178 0 -52 2 -108 4 -125 13 -103 19 -135 40 -218 28 -111
100 -305 157 -425 75 -157 111 -235 161 -352 27 -63 51 -116 53 -118 2 -2 23
5 47 16 23 10 120 50 213 87 94 38 174 72 179 76 11 10 -37 124 -156 369 -82
169 -118 250 -162 369 -25 66 -48 178 -53 261 -4 72 -4 76 24 101 15 14 53 36
83 48 50 21 296 141 345 169 223 125 332 193 478 297 55 39 109 77 120 85 12
8 64 45 116 82 l94 67 30 -42 c17 -23 33 -44 37 -47 3 -3 35 -43 70 -90 36
-47 68 -87 71 -90 3 -3 37 -41 74 -85 142 -169 418 -452 555 -571 25 -21 63
-56 85 -76 35 -32 169 -142 251 -207 l29 -23 -116 -111 c-153 -149 -251 -236
-373 -331 -56 -43 -103 -81 -106 -85 -3 -3 -38 -33 -79 -65 -40 -33 -124 -109
-185 -171 -106 -107 -113 -116 -149 -206 -54 -135 -84 -271 -93 -425 -5 -74
-2 -105 15 -170 27 -98 91 -231 147 -304 71 -93 224 -236 338 -315 159 -111
341 -233 419 -282 l35 -21 43 66 c24 37 83 127 131 201 48 74 88 137 88 141 0
4 -8 11 -17 14 -9 4 -127 80 -262 170 -277 184 -384 277 -428 372 -22 49 -24
63 -18 137 11 152 33 214 97 284 64 69 160 158 218 202 77 58 209 167 284 235
116 104 128 116 273 259 l133 130 37 -26 c320 -215 844 -464 1268 -600 134
-43 388 -113 441 -121 21 -4 63 -13 94 -21 30 -8 71 -16 90 -19 19 -3 89 -14
155 -25 66 -11 145 -22 176 -26 31 -3 65 -7 75 -9 100 -19 691 -28 859 -13
169 16 191 18 215 22 14 3 43 7 65 10 100 14 229 38 330 61 61 13 121 27 134
30 14 3 28 7 31 9 4 2 22 7 40 10 18 3 61 15 94 26 34 11 90 29 126 40 59 19
277 99 325 119 11 5 104 49 206 98 718 344 1338 890 1765 1555 36 56 74 114
85 129 10 15 19 29 19 32 0 2 21 40 46 83 44 73 182 347 231 458 141 317 274
753 342 1120 21 116 25 136 37 225 4 30 8 57 9 60 4 18 22 192 30 300 3 47 8
108 11 135 6 64 5 551 0 630 -3 33 -8 98 -11 145 -6 88 -7 102 -25 235 -5 44
-12 103 -15 130 -3 28 -8 61 -11 75 -2 14 -6 36 -9 50 -2 14 -11 68 -20 120
-52 306 -199 826 -312 1110 -4 8 -7 17 -8 20 -3 9 -18 44 -62 148 -23 57 -43
105 -43 107 0 4 -101 217 -142 302 -13 26 -8 32 136 187 56 61 114 123 127
137 532 580 645 669 866 686 61 5 81 2 124 -16 151 -65 306 -230 380 -403 13
-32 30 -58 38 -58 13 0 413 145 438 159 16 9 -76 200 -152 317 -115 177 -327
350 -555 454 -75 34 -76 35 -220 34 -218 0 -400 -46 -540 -137 -127 -82 -315
-252 -489 -443 -103 -112 -156 -170 -285 -307 l-129 -137 -100 152 c-173 266
-331 476 -536 713 -168 193 -432 459 -578 581 l-22 19 51 70 c325 439 514 670
637 777 62 55 213 132 288 147 62 13 127 -3 218 -54 124 -70 189 -141 296
-325 44 -75 64 -110 83 -148 l17 -32 207 106 c114 59 211 111 216 115 11 9 6
19 -70 155 -178 318 -318 461 -569 580 -164 78 -344 117 -426 94 -18 -5 -49
-12 -70 -15 -95 -14 -280 -92 -412 -173 -142 -88 -334 -307 -709 -809 -136
-181 -136 -181 -159 -165 -13 9 -26 19 -29 22 -9 11 -302 205 -380 250 -41 25
-76 48 -78 52 -2 5 -7 8 -12 8 -4 0 -56 27 -116 60 -143 81 -377 194 -546 266
l-138 58 70 133 c137 262 227 393 510 743 170 211 264 301 363 349 72 36 82
38 157 35 170 -6 284 -75 422 -257 l36 -47 143 106 c79 59 165 122 192 141 26
19 47 40 47 45 0 19 -111 151 -206 244 -76 75 -108 99 -185 137 -117 57 -191
84 -280 102 -81 16 -226 21 -329 11 -72 -7 -280 -109 -384 -188 -179 -138
-590 -639 -768 -937 -77 -129 -158 -277 -220 -403 -15 -32 -30 -58 -32 -58 -2
0 -76 18 -163 39 -170 43 -283 67 -350 75 -23 3 -61 10 -85 15 -41 9 -124 20
-198 27 -19 1 -47 5 -62 8 -112 20 -661 29 -838 13 -143 -13 -194 -18 -220
-22 -14 -2 -47 -7 -75 -10 -59 -8 -163 -26 -315 -56 -173 -34 -470 -125 -672
-205 -78 -31 -144 -52 -145 -47 -4 11 -94 136 -136 188 -50 62 -186 197 -257
257 -132 109 -328 223 -488 284 -91 35 -304 90 -375 98 -32 3 -63 8 -68 11
-12 8 -313 8 -379 0 -94 -11 -285 -52 -361 -79 -40 -14 -74 -24 -75 -23 -1 1
-5 34 -9 72 -3 39 -11 90 -17 115 -5 25 -11 53 -13 62 -23 112 -136 357 -209
452 -14 19 -26 39 -26 44 0 6 -3 12 -7 14 -5 2 -43 47 -87 101 -69 86 -359
377 -376 377 -3 0 -20 -15 -38 -33z"/>
</g>
</svg>
