<?xml version="1.0" standalone="no"?>
<!DOCTYPE svg PUBLIC "-//W3C//DTD SVG 20010904//EN"
 "http://www.w3.org/TR/2001/REC-SVG-20010904/DTD/svg10.dtd">
<svg version="1.0" xmlns="http://www.w3.org/2000/svg"
 width="560.000000pt" height="560.000000pt" viewBox="0 0 560.000000 560.000000"
 preserveAspectRatio="xMidYMid meet">
<metadata>
Created by potrace 1.11, written by Peter Selinger 2001-2013
</metadata>
<g transform="translate(0.000000,560.000000) scale(0.100000,-0.100000)"
fill="#000000" stroke="none">
<path d="M2320 4815 l0 -95 -192 -2 -193 -3 -3 -92 -3 -93 -94 0 -95 0 0 -95
0 -95 -95 0 -95 0 0 -195 0 -195 -95 0 -95 0 0 -290 0 -290 95 0 95 0 0 -95 0
-95 95 0 95 0 0 -95 0 -95 95 0 94 0 3 -92 3 -93 95 -5 95 -5 0 -90 0 -90 -97
-3 -98 -3 0 -189 0 -190 -95 0 -95 0 2 -577 3 -578 92 -3 92 -3 3 -92 3 -92
98 -3 97 -3 0 -94 0 -95 385 0 385 0 0 95 0 94 93 3 92 3 3 93 3 92 89 0 89 0
3 -93 3 -92 98 -3 97 -3 0 -95 0 -94 193 2 192 3 3 92 3 92 92 3 92 3 3 92 3
92 92 3 92 3 0 385 0 385 -92 3 -92 3 -3 92 -3 92 -97 3 -98 3 0 -96 0 -95
-95 0 -95 0 0 -95 0 -95 -95 0 -95 0 0 95 0 95 -95 0 -95 0 0 95 0 95 -95 0
-95 0 0 90 0 90 95 0 94 0 3 98 3 97 93 3 92 3 0 189 0 189 98 3 97 3 3 93 3
92 94 0 95 0 0 95 0 94 93 3 92 3 3 93 3 92 94 0 95 0 0 290 0 290 -95 0 -95
0 -2 193 -3 192 -92 3 -93 3 0 94 0 95 -95 0 -94 0 -3 93 -3 92 -192 3 -193 2
0 95 0 95 -480 0 -480 0 0 -95z m0 -575 l0 -100 -95 0 -95 0 0 -190 0 -190 95
0 95 0 0 -95 0 -95 -190 0 -190 0 0 285 0 285 95 0 95 0 0 100 0 100 95 0 95
0 0 -100z m578 -2 l3 -98 94 0 95 0 0 -95 0 -95 95 0 95 0 0 -190 0 -190 -385
0 -385 0 0 95 0 95 95 0 95 0 0 190 0 190 -95 0 -95 0 0 100 0 100 193 -2 192
-3 3 -97z m-768 -958 l0 -100 -95 0 -95 0 0 100 0 100 95 0 95 0 0 -100z
m1150 0 l0 -100 -192 2 -193 3 -3 84 c-2 46 -1 90 2 98 4 10 46 13 196 13
l190 0 0 -100z m-190 -385 l0 -95 -95 0 -95 0 0 -95 0 -95 -100 0 -100 0 0
-190 0 -190 -95 0 -95 0 0 -195 0 -195 -95 0 -95 0 0 -285 0 -285 95 0 95 0 0
-95 0 -95 95 0 95 0 0 -95 0 -95 -285 0 -284 0 -3 92 -3 93 -92 3 -93 3 0 574
0 575 95 0 95 0 0 190 0 190 95 0 95 0 0 190 0 190 385 0 385 0 0 -95z"/>
</g>
</svg>
