<?xml version="1.0" standalone="no"?>
<!DOCTYPE svg PUBLIC "-//W3C//DTD SVG 20010904//EN"
 "http://www.w3.org/TR/2001/REC-SVG-20010904/DTD/svg10.dtd">
<svg version="1.0" xmlns="http://www.w3.org/2000/svg"
 width="700.000000pt" height="700.000000pt" viewBox="0 0 700.000000 700.000000"
 preserveAspectRatio="xMidYMid meet">
<metadata>
Created by potrace 1.11, written by Peter Selinger 2001-2013
</metadata>
<g transform="translate(0.000000,700.000000) scale(0.100000,-0.100000)"
fill="#000000" stroke="none">
<path d="M5050 6021 c-289 -230 -526 -415 -528 -412 -1 4 27 161 63 350 60
315 64 345 49 356 -20 14 103 53 -1647 -520 -1065 -349 -1248 -412 -1253 -430
-3 -13 85 -219 240 -564 l245 -544 -176 -383 -176 -383 -411 -327 c-226 -180
-412 -330 -414 -333 -8 -21 44 -46 230 -111 l206 -72 -18 -42 c-10 -22 -190
-414 -400 -871 -210 -456 -388 -844 -395 -860 -29 -67 -203 -45 2176 -265
1190 -109 2182 -201 2204 -204 88 -11 93 -22 -236 599 -165 312 -299 569 -297
570 2 2 345 -118 763 -266 615 -217 762 -266 773 -255 10 10 10 32 3 102 -5
49 -101 1252 -212 2674 -111 1422 -205 2588 -208 2591 -3 4 -17 9 -31 12 -21
5 -102 -56 -550 -412z m725 -2271 c113 -1432 203 -2606 200 -2608 -4 -4 -1475
512 -1506 529 -9 5 -129 221 -267 481 l-250 473 274 1445 c151 795 280 1450
287 1456 41 38 1050 834 1053 831 2 -2 96 -1175 209 -2607z m-1185 2523 c0 -5
-31 -169 -69 -366 -41 -215 -74 -363 -82 -371 -8 -8 -313 -251 -679 -541 -366
-291 -684 -543 -706 -562 l-42 -34 -180 343 c-166 314 -183 343 -206 343 -24
0 -37 -24 -187 -350 -89 -192 -169 -367 -177 -387 -8 -21 -18 -38 -22 -38 -6
0 -458 996 -467 1032 -4 14 51 35 334 127 186 61 817 268 1403 460 586 192
1068 350 1073 350 4 1 7 -2 7 -6z m-155 -825 c-2 -7 -119 -620 -260 -1363
-141 -742 -258 -1356 -261 -1364 -4 -14 -866 1600 -868 1626 -1 11 1370 1111
1386 1112 4 1 5 -5 3 -11z m-1630 -767 c91 -172 164 -315 163 -316 -224 -180
-550 -435 -556 -435 -6 0 -55 103 -135 286 -7 17 26 96 169 408 97 213 181
383 185 379 4 -4 82 -149 174 -322z m639 -1208 c245 -464 446 -853 446 -865 0
-33 -121 -672 -129 -681 -4 -4 -126 35 -272 86 l-264 93 -312 695 c-172 381
-351 779 -397 882 l-85 188 282 224 c154 123 282 223 283 222 1 -1 203 -381
448 -844z m-1125 563 c34 -76 61 -139 59 -141 -2 -1 -91 -71 -198 -156 -107
-85 -201 -158 -207 -162 -7 -5 7 36 32 89 25 54 89 193 143 310 53 117 100
210 103 206 4 -4 34 -69 68 -146z m470 -1047 c211 -468 381 -853 378 -856 -4
-4 -1596 552 -1604 561 -2 1 75 173 171 382 l174 379 242 193 c132 105 245
192 249 192 4 0 180 -383 390 -851z m-993 349 c-7 -18 -69 -152 -136 -298 -67
-146 -129 -279 -136 -297 l-14 -32 -152 53 c-84 30 -168 60 -186 67 l-33 14
328 262 c180 144 331 262 336 262 4 1 1 -14 -7 -31z m638 -1027 c423 -149 774
-275 780 -280 6 -5 101 -210 211 -455 178 -397 202 -446 222 -446 13 0 23 3
23 8 0 13 129 684 132 687 2 2 144 -47 317 -109 l314 -111 307 -580 c169 -319
307 -581 306 -582 -2 -2 -4331 398 -4334 401 -1 2 169 376 379 832 209 456
394 857 409 891 l28 62 69 -23 c37 -13 414 -146 837 -295z m1727 -193 c120
-227 217 -414 216 -415 -6 -5 -562 197 -561 204 19 116 120 631 123 628 2 -2
102 -190 222 -417z m-645 -189 c126 -44 230 -81 231 -83 4 -3 -114 -616 -119
-621 -4 -4 -323 693 -356 777 -6 14 11 9 244 -73z"/>
</g>
</svg>
