<?xml version="1.0" standalone="no"?>
<!DOCTYPE svg PUBLIC "-//W3C//DTD SVG 20010904//EN"
 "http://www.w3.org/TR/2001/REC-SVG-20010904/DTD/svg10.dtd">
<svg version="1.0" xmlns="http://www.w3.org/2000/svg"
 width="1277.000000pt" height="1277.000000pt" viewBox="0 0 1277.000000 1277.000000"
 preserveAspectRatio="xMidYMid meet">
<metadata>
Created by potrace 1.11, written by Peter Selinger 2001-2013
</metadata>
<g transform="translate(0.000000,1277.000000) scale(0.100000,-0.100000)"
fill="#000000" stroke="none">
<path d="M6205 12668 c-93 -55 -188 -110 -210 -122 -22 -12 -59 -34 -82 -49
-24 -15 -45 -27 -48 -27 -3 0 -48 -27 -101 -60 -52 -33 -97 -60 -98 -60 -3 0
-518 -296 -556 -319 -8 -5 -80 -47 -159 -93 -80 -46 -165 -95 -190 -110 -25
-15 -57 -33 -71 -40 -14 -8 -185 -107 -380 -220 -309 -179 -570 -329 -930
-536 -52 -30 -117 -67 -145 -84 -27 -16 -65 -36 -82 -45 l-33 -17 -2 -1719 -3
-1720 -190 -110 c-104 -60 -206 -118 -225 -129 -19 -11 -92 -53 -162 -94 -70
-41 -132 -74 -138 -74 -5 0 -10 -3 -10 -8 0 -4 -21 -18 -48 -32 -26 -14 -118
-67 -205 -117 -87 -51 -160 -93 -163 -93 -2 0 -33 -17 -67 -39 -53 -32 -579
-338 -688 -399 -19 -11 -96 -55 -170 -97 -74 -43 -176 -102 -226 -132 -51 -29
-137 -78 -190 -109 -54 -31 -116 -67 -138 -79 -22 -13 -105 -61 -185 -107
l-145 -84 -3 -1926 c-2 -1533 1 -1928 10 -1935 14 -11 243 -144 523 -303 94
-54 296 -170 450 -260 154 -89 305 -176 335 -193 30 -17 84 -48 119 -69 34
-21 67 -38 72 -38 5 0 9 -4 9 -10 0 -5 5 -10 11 -10 6 0 68 -33 137 -74 70
-41 143 -83 162 -94 19 -11 87 -50 150 -86 63 -36 176 -102 250 -146 74 -44
142 -83 150 -87 15 -7 222 -125 250 -143 8 -5 42 -24 75 -43 33 -19 173 -100
311 -179 l251 -145 39 21 c21 12 61 35 89 51 27 17 59 35 70 42 11 7 29 17 40
22 11 6 68 39 127 73 116 68 514 300 563 328 135 78 593 342 605 350 14 8 53
31 205 118 28 16 181 105 340 197 160 92 306 177 325 188 19 11 49 28 65 38
17 10 41 24 55 32 14 7 116 66 227 130 111 64 205 117 208 117 3 0 135 -75
293 -166 158 -92 305 -177 327 -189 22 -13 209 -121 415 -240 206 -120 395
-229 420 -243 159 -89 570 -327 592 -343 15 -11 29 -19 31 -19 3 0 96 -52 208
-116 112 -64 218 -125 235 -134 152 -87 203 -116 224 -129 14 -9 70 -41 124
-72 l100 -57 40 26 c23 14 50 30 61 36 21 11 330 191 533 310 137 80 171 100
232 134 25 14 126 73 225 130 99 58 194 113 210 122 61 35 661 380 675 389 8
6 67 39 130 76 63 36 133 76 155 89 22 13 69 40 105 61 128 74 463 268 585
340 50 29 110 64 135 77 25 14 73 42 108 62 l62 37 -2 1925 -3 1925 -60 32
c-33 18 -62 34 -65 37 -3 3 -63 39 -135 80 -71 40 -206 119 -300 175 -93 56
-190 113 -215 127 -25 14 -126 72 -225 130 -99 57 -200 116 -225 130 -60 34
-488 280 -570 328 -106 62 -491 285 -540 312 -25 14 -117 67 -205 118 -88 51
-180 104 -205 118 -25 14 -61 36 -80 49 -19 12 -38 23 -43 23 -4 0 -25 12 -47
26 l-40 27 -2 1715 -3 1716 -85 49 c-47 27 -98 57 -115 67 -16 9 -115 66 -220
127 -104 60 -298 172 -430 248 -132 76 -251 145 -265 153 -14 9 -43 26 -65 38
-22 12 -209 119 -415 239 -206 119 -395 229 -420 243 -25 13 -97 55 -160 92
-63 37 -142 82 -175 100 -33 19 -71 41 -85 50 -22 15 -106 63 -244 139 -21 12
-133 77 -250 145 -116 67 -240 139 -276 158 l-65 35 -170 -99z"/>
</g>
</svg>
