<?xml version="1.0" standalone="no"?>
<!DOCTYPE svg PUBLIC "-//W3C//DTD SVG 20010904//EN"
 "http://www.w3.org/TR/2001/REC-SVG-20010904/DTD/svg10.dtd">
<svg version="1.0" xmlns="http://www.w3.org/2000/svg"
 width="360.000000pt" height="360.000000pt" viewBox="0 0 360.000000 360.000000"
 preserveAspectRatio="xMidYMid meet">
<metadata>
Created by potrace 1.11, written by Peter Selinger 2001-2013
</metadata>
<g transform="translate(0.000000,360.000000) scale(0.100000,-0.100000)"
fill="#000000" stroke="none">
<path d="M1725 3082 c-3 -3 -20 -6 -38 -8 -48 -3 -93 -12 -167 -36 -256 -81
-463 -290 -544 -547 -25 -79 -34 -130 -45 -247 -1 -6 -25 -27 -54 -47 -118
-81 -213 -190 -274 -312 -50 -100 -58 -122 -78 -215 -60 -284 26 -572 233
-777 224 -224 547 -302 857 -209 17 5 47 17 108 44 l57 25 68 -31 c57 -26 103
-43 122 -47 3 0 30 -7 60 -15 58 -15 267 -19 330 -7 59 12 175 51 182 62 4 5
8 7 8 3 0 -12 110 52 170 98 221 171 342 419 335 691 -3 113 -11 161 -41 253
-54 162 -157 307 -290 406 -21 16 -41 32 -44 35 -3 3 -14 11 -26 17 -15 8 -21
21 -22 49 -2 52 -17 168 -22 168 -1 0 -3 11 -6 23 -2 13 -18 57 -35 98 -118
282 -384 483 -689 520 -75 9 -149 12 -155 6z"/>
</g>
</svg>
