<?xml version="1.0" standalone="no"?>
<!DOCTYPE svg PUBLIC "-//W3C//DTD SVG 20010904//EN"
 "http://www.w3.org/TR/2001/REC-SVG-20010904/DTD/svg10.dtd">
<svg version="1.0" xmlns="http://www.w3.org/2000/svg"
 width="260.000000pt" height="260.000000pt" viewBox="0 0 260.000000 260.000000"
 preserveAspectRatio="xMidYMid meet">
<metadata>
Created by potrace 1.11, written by Peter Selinger 2001-2013
</metadata>
<g transform="translate(0.000000,260.000000) scale(0.100000,-0.100000)"
fill="#000000" stroke="none">
<path d="M0 1300 l0 -1300 1300 0 1300 0 0 1300 0 1300 -185 0 -185 0 0 -35 0
-35 75 0 75 0 0 -75 0 -75 -40 0 -40 0 0 -75 0 -75 40 0 40 0 0 -110 0 -110
-40 0 -40 0 0 -95 0 -95 -35 0 c-33 0 -35 2 -35 35 0 34 -1 35 -40 35 l-40 0
0 60 0 60 -35 0 c-33 0 -35 2 -35 35 0 33 -2 35 -35 35 -33 0 -35 2 -35 35 l0
35 -60 0 -60 0 0 40 c0 39 -1 40 -35 40 -33 0 -35 2 -35 35 l0 35 -75 0 -75 0
0 40 0 40 -260 0 -260 0 0 -40 0 -40 -150 0 -150 0 0 -35 0 -35 -70 0 -70 0 0
-40 0 -40 -60 0 -60 0 0 -35 c0 -33 -2 -35 -35 -35 l-35 0 0 -95 0 -95 -35 0
-35 0 0 -70 0 -70 -40 0 -40 0 0 -75 0 -75 -35 0 -35 0 0 -300 0 -300 35 0
c33 0 35 -2 35 -35 0 -34 1 -35 40 -35 l40 0 0 -40 c0 -39 1 -40 35 -40 l35 0
0 -70 0 -70 35 0 c34 0 35 -1 35 -40 l0 -40 60 0 60 0 0 -55 0 -55 35 0 c33 0
35 -2 35 -35 0 -33 2 -35 35 -35 l35 0 0 -75 0 -75 -35 0 c-33 0 -35 2 -35 35
l0 35 -95 0 -95 0 0 -35 0 -35 -110 0 -110 0 0 35 c0 33 -2 35 -35 35 -34 0
-35 1 -35 40 l0 40 -40 0 c-39 0 -40 1 -40 35 l0 35 -75 0 -75 0 0 930 0 930
40 0 40 0 0 75 0 75 75 0 75 0 0 35 0 35 -150 0 -150 0 0 -1300z m1670 965 l0
-35 75 0 75 0 0 -40 c0 -39 1 -40 35 -40 33 0 35 -2 35 -35 l0 -35 60 0 60 0
0 -35 c0 -33 2 -35 35 -35 l35 0 0 -60 0 -60 35 0 35 0 0 -110 0 -110 -35 0
c-33 0 -35 -2 -35 -35 0 -33 -2 -35 -35 -35 l-35 0 0 -75 0 -75 35 0 35 0 0
-300 0 -300 -95 0 -95 0 0 -35 c0 -33 -2 -35 -35 -35 -33 0 -35 -2 -35 -35 l0
-35 -75 0 -75 0 0 -40 0 -40 -75 0 -75 0 0 -55 0 -55 -75 0 -75 0 0 -35 0 -35
-110 0 -110 0 0 390 0 390 -35 0 c-33 0 -35 2 -35 35 0 34 -1 35 -40 35 l-40
0 0 75 0 75 -35 0 -35 0 0 75 0 75 -40 0 c-39 0 -40 1 -40 35 0 33 -2 35 -35
35 -34 0 -35 1 -35 40 0 39 -1 40 -35 40 -33 0 -35 2 -35 35 0 33 2 35 35 35
33 0 35 -2 35 -35 0 -33 2 -35 35 -35 34 0 35 -1 35 -40 l0 -40 40 0 c39 0 40
-1 40 -35 0 -33 2 -35 35 -35 l35 0 0 -75 0 -75 40 0 40 0 0 -40 c0 -39 1 -40
35 -40 33 0 35 -2 35 -35 0 -34 1 -35 40 -35 39 0 40 -1 40 -35 0 -33 2 -35
35 -35 34 0 35 -1 35 -40 l0 -40 75 0 75 0 0 40 0 40 75 0 75 0 0 -75 0 -75
35 0 c34 0 35 -1 35 -40 l0 -40 75 0 75 0 0 40 c0 39 1 40 35 40 24 0 35 5 35
15 0 10 -11 15 -35 15 -24 0 -35 -5 -35 -15 0 -10 -11 -15 -35 -15 l-35 0 0
110 0 110 35 0 c33 0 35 2 35 35 l0 35 -110 0 -110 0 0 40 0 40 -75 0 -75 0 0
-40 0 -40 -75 0 -75 0 0 75 0 75 -35 0 c-34 0 -35 1 -35 40 l0 40 -40 0 -40 0
0 75 0 75 -35 0 c-33 0 -35 2 -35 35 0 34 -1 35 -40 35 -39 0 -40 1 -40 35 0
33 -2 35 -35 35 l-35 0 0 95 0 95 -40 0 -40 0 0 75 0 75 150 0 150 0 0 35 0
35 260 0 260 0 0 -35z m-1080 -485 l0 -110 -35 0 c-33 0 -35 -2 -35 -35 0 -33
-2 -35 -35 -35 l-35 0 0 -75 0 -75 -40 0 -40 0 0 75 0 75 40 0 40 0 0 75 0 75
35 0 35 0 0 70 0 70 35 0 35 0 0 -110z m1790 -185 l0 -225 -75 0 -75 0 0 75 0
75 35 0 35 0 0 150 0 150 40 0 40 0 0 -225z m-1790 -295 l0 -220 -35 0 -35 0
0 220 0 220 35 0 35 0 0 -220z m1710 -485 c0 -33 -2 -35 -35 -35 l-35 0 0 -75
0 -75 -75 0 -75 0 0 -90 0 -90 -35 0 c-34 0 -35 -1 -35 -40 l0 -40 -60 0 -60
0 0 -35 c0 -33 -2 -35 -35 -35 -33 0 -35 2 -35 35 0 33 -2 35 -35 35 -34 0
-35 1 -35 40 l0 40 70 0 70 0 0 35 0 35 60 0 60 0 0 55 0 55 35 0 c34 0 35 1
35 40 0 39 1 40 35 40 33 0 35 2 35 35 0 34 1 35 40 35 39 0 40 1 40 35 0 33
2 35 35 35 33 0 35 -2 35 -35z"/>
<path d="M1600 1950 l0 -60 -115 0 -115 0 0 -35 c0 -34 1 -35 40 -35 39 0 40
-1 40 -35 0 -33 2 -35 35 -35 34 0 35 -1 35 -40 l0 -40 40 0 c39 0 40 -1 40
-35 0 -33 2 -35 35 -35 l35 0 0 -75 0 -75 40 0 c39 0 40 1 40 35 0 33 2 35 35
35 34 0 35 1 35 40 l0 40 -75 0 -75 0 0 35 0 35 75 0 75 0 0 40 c0 39 1 40 35
40 33 0 35 2 35 35 0 33 -2 35 -35 35 -33 0 -35 2 -35 35 0 33 -2 35 -35 35
l-35 0 0 60 0 60 -75 0 -75 0 0 -60z m150 -95 c0 -33 2 -35 35 -35 33 0 35 -2
35 -35 0 -33 -2 -35 -35 -35 -33 0 -35 2 -35 35 0 34 -1 35 -40 35 -39 0 -40
1 -40 35 0 34 1 35 40 35 39 0 40 -1 40 -35z"/>
<path d="M1890 1375 l0 -75 -35 0 -35 0 0 -55 0 -55 35 0 35 0 0 55 0 55 60 0
60 0 0 75 0 75 -60 0 -60 0 0 -75z"/>
</g>
</svg>
